<svg xmlns="http://www.w3.org/2000/svg" xmlns:xlink="http://www.w3.org/1999/xlink" version="1.1" x="0px" y="0px" viewBox="0 0 100 125" enable-background="new 0 0 100 100" xml:space="preserve"><g><g><path d="M18.895,26.084c-0.536,0-1.032-0.348-1.196-0.887c-0.236-0.776-0.471-1.587-0.704-2.433    c-0.185-0.666,0.205-1.354,0.87-1.539c0.663-0.185,1.354,0.206,1.538,0.871c0.229,0.825,0.458,1.615,0.688,2.373    c0.2,0.66-0.172,1.359-0.832,1.56C19.137,26.066,19.015,26.084,18.895,26.084z"/></g><g><path d="M85.824,75.298c-0.67,0-1.225-0.531-1.248-1.206c-0.056-1.575-0.183-3.139-0.376-4.649    c-0.087-0.685,0.396-1.311,1.081-1.398c0.681-0.085,1.311,0.395,1.399,1.081c0.203,1.585,0.335,3.227,0.394,4.877    c0.024,0.69-0.515,1.269-1.205,1.293C85.854,75.298,85.839,75.298,85.824,75.298z M84.59,65.835c-0.566,0-1.079-0.387-1.215-0.961    c-0.367-1.545-0.819-3.03-1.344-4.414c-0.244-0.646,0.08-1.367,0.726-1.612c0.646-0.244,1.367,0.08,1.612,0.726    c0.563,1.483,1.046,3.072,1.438,4.721c0.16,0.672-0.255,1.346-0.927,1.505C84.782,65.824,84.686,65.835,84.59,65.835z     M81.177,56.948c-0.434,0-0.855-0.226-1.086-0.629c-0.77-1.344-1.645-2.592-2.602-3.708c-0.449-0.524-0.389-1.313,0.136-1.763    c0.524-0.45,1.314-0.387,1.763,0.136c1.059,1.236,2.025,2.613,2.873,4.093c0.343,0.599,0.135,1.363-0.464,1.706    C81.601,56.895,81.388,56.948,81.177,56.948z M74.982,49.771c-0.265,0-0.532-0.084-0.759-0.257    c-1.179-0.902-2.471-1.692-3.84-2.347c-0.623-0.298-0.887-1.044-0.589-1.667s1.043-0.888,1.667-0.588    c1.525,0.729,2.965,1.61,4.281,2.617c0.548,0.419,0.652,1.204,0.233,1.752C75.73,49.602,75.358,49.771,74.982,49.771z     M66.455,45.651c-0.107,0-0.216-0.014-0.324-0.043c-1.416-0.378-2.93-0.658-4.497-0.831c-0.687-0.076-1.182-0.693-1.105-1.38    c0.075-0.686,0.701-1.178,1.379-1.105c1.693,0.187,3.332,0.49,4.87,0.901c0.666,0.178,1.063,0.863,0.885,1.53    C67.513,45.282,67.007,45.651,66.455,45.651z M57.02,44.354c-0.03,0-0.061-0.001-0.092-0.003    c-1.547-0.112-3.092-0.198-4.724-0.263c-0.689-0.027-1.227-0.609-1.199-1.299c0.027-0.689,0.58-1.219,1.299-1.199    c1.659,0.066,3.231,0.154,4.806,0.268c0.688,0.05,1.206,0.648,1.156,1.337C58.218,43.852,57.669,44.354,57.02,44.354z     M47.483,43.962c-0.006,0-0.013,0-0.019,0c-1.198-0.018-2.343-0.027-3.437-0.037L42.7,43.914c-0.69-0.007-1.245-0.572-1.238-1.262    c0.007-0.687,0.565-1.238,1.25-1.238c0.004,0,0.008,0,0.012,0l1.325,0.012c1.1,0.009,2.249,0.018,3.453,0.036    c0.69,0.01,1.241,0.579,1.231,1.269C48.723,43.415,48.165,43.962,47.483,43.962z M37.943,43.804c-0.02,0-0.04,0-0.06-0.001    c-1.963-0.093-3.521-0.253-4.905-0.504c-0.679-0.124-1.13-0.774-1.006-1.453c0.123-0.679,0.761-1.131,1.453-1.007    c1.272,0.231,2.727,0.379,4.575,0.467c0.689,0.033,1.223,0.618,1.19,1.308C39.159,43.283,38.606,43.804,37.943,43.804z     M28.692,41.849c-0.195,0-0.393-0.046-0.577-0.143c-1.528-0.798-2.857-1.853-4.062-3.226c-0.455-0.519-0.404-1.309,0.115-1.764    c0.52-0.457,1.31-0.404,1.764,0.115c0.997,1.137,2.09,2.006,3.339,2.659c0.612,0.319,0.85,1.074,0.53,1.687    C29.578,41.604,29.143,41.849,28.692,41.849z M22.351,34.962c-0.449,0-0.883-0.243-1.107-0.668    c-0.694-1.319-1.346-2.789-1.992-4.493c-0.245-0.646,0.08-1.367,0.726-1.612c0.643-0.245,1.367,0.08,1.612,0.726    c0.609,1.608,1.221,2.987,1.867,4.214c0.321,0.611,0.087,1.367-0.524,1.688C22.746,34.916,22.547,34.962,22.351,34.962z"/></g><g><path d="M85.572,82.681c-0.057,0-0.113-0.004-0.17-0.012c-0.684-0.093-1.163-0.722-1.07-1.406c0.001-0.009,0.12-0.905,0.201-2.388    c0.037-0.689,0.609-1.224,1.316-1.18c0.688,0.038,1.217,0.626,1.18,1.316c-0.087,1.595-0.215,2.549-0.221,2.589    C86.724,82.226,86.188,82.681,85.572,82.681z"/></g></g><g><g><path d="M28.25,23.517c-0.124,0-0.25-0.019-0.374-0.058l-1.431-0.449c-0.659-0.207-1.025-0.908-0.818-1.567    c0.206-0.659,0.911-1.028,1.566-0.818l1.431,0.449c0.659,0.207,1.025,0.908,0.818,1.567C29.275,23.175,28.782,23.517,28.25,23.517    z"/></g><g><path d="M23.526,22.033c-0.124,0-0.25-0.019-0.375-0.058l-3.293-1.034c-0.658-0.207-1.024-0.908-0.817-1.567    s0.906-1.026,1.567-0.818l3.293,1.034c0.658,0.207,1.024,0.908,0.817,1.567C24.551,21.691,24.059,22.033,23.526,22.033z"/></g><g><path d="M15.197,20.982c-0.086,0-0.174-0.009-0.263-0.028c-0.675-0.144-1.104-0.808-0.961-1.483l0.601-2.81l2.74,0.861    c0.659,0.207,1.025,0.908,0.818,1.567c-0.206,0.659-0.911,1.026-1.566,0.818l-0.121-0.038l-0.026,0.124    C16.293,20.58,15.774,20.982,15.197,20.982z"/></g><g><path d="M13.942,26.86c-0.086,0-0.174-0.009-0.262-0.028c-0.676-0.144-1.105-0.808-0.962-1.483l0.628-2.939    c0.145-0.674,0.806-1.105,1.483-0.961c0.676,0.145,1.105,0.809,0.962,1.484l-0.628,2.939C15.038,26.458,14.52,26.86,13.942,26.86z    "/></g><g><path d="M13.001,31.267c-0.086,0-0.174-0.009-0.263-0.028c-0.675-0.144-1.104-0.808-0.961-1.483l0.313-1.467    c0.145-0.674,0.8-1.106,1.484-0.961c0.675,0.144,1.104,0.808,0.961,1.483l-0.313,1.467C14.097,30.864,13.578,31.267,13.001,31.267    z"/></g></g></svg>