<?xml version="1.0" encoding="UTF-8" standalone="no"?>
<svg
   xmlns:dc="http://purl.org/dc/elements/1.1/"
   xmlns:cc="http://creativecommons.org/ns#"
   xmlns:rdf="http://www.w3.org/1999/02/22-rdf-syntax-ns#"
   xmlns:svg="http://www.w3.org/2000/svg"
   xmlns="http://www.w3.org/2000/svg"
   xmlns:sodipodi="http://sodipodi.sourceforge.net/DTD/sodipodi-0.dtd"
   xmlns:inkscape="http://www.inkscape.org/namespaces/inkscape"
   width="500mm"
   height="200mm"
   viewBox="0 0 500 200"
   version="1.1"
   id="svg1551"
   inkscape:version="1.0.2 (e86c870879, 2021-01-15, custom)"
   sodipodi:docname="210219Logo.svg">
  <defs
     id="defs1545" />
  <sodipodi:namedview
     id="base"
     pagecolor="#ffffff"
     bordercolor="#666666"
     borderopacity="1.0"
     inkscape:pageopacity="0.0"
     inkscape:pageshadow="2"
     inkscape:zoom="0.49497474"
     inkscape:cx="952.62562"
     inkscape:cy="496.6506"
     inkscape:document-units="mm"
     inkscape:current-layer="layer1"
     inkscape:document-rotation="0"
     showgrid="false"
     inkscape:window-width="1624"
     inkscape:window-height="1020"
     inkscape:window-x="228"
     inkscape:window-y="0"
     inkscape:window-maximized="0" />
  <metadata
     id="metadata1548">
    <rdf:RDF>
      <cc:Work
         rdf:about="">
        <dc:format>image/svg+xml</dc:format>
        <dc:type
           rdf:resource="http://purl.org/dc/dcmitype/StillImage" />
        <dc:title />
      </cc:Work>
    </rdf:RDF>
  </metadata>
  <g
     inkscape:label="Layer 1"
     inkscape:groupmode="layer"
     id="layer1">
    <circle
       style="fill:none;stroke:#bbbbbb;stroke-width:23.54;stroke-linecap:square;stroke-miterlimit:4;stroke-dasharray:none;stroke-opacity:1"
       id="circle1509"
       cx="176.99007"
       cy="77.661163"
       r="40.508461" />
    <path
       id="path1511"
       style="color:#000000;font-style:normal;font-variant:normal;font-weight:normal;font-stretch:normal;font-size:medium;line-height:normal;font-family:sans-serif;font-variant-ligatures:normal;font-variant-position:normal;font-variant-caps:normal;font-variant-numeric:normal;font-variant-alternates:normal;font-variant-east-asian:normal;font-feature-settings:normal;font-variation-settings:normal;text-indent:0;text-align:start;text-decoration:none;text-decoration-line:none;text-decoration-style:solid;text-decoration-color:#000000;letter-spacing:normal;word-spacing:normal;text-transform:none;writing-mode:lr-tb;direction:ltr;text-orientation:mixed;dominant-baseline:auto;baseline-shift:baseline;text-anchor:start;white-space:normal;shape-padding:0;shape-margin:0;inline-size:0;clip-rule:nonzero;display:inline;overflow:visible;visibility:visible;isolation:auto;mix-blend-mode:normal;color-interpolation:sRGB;color-interpolation-filters:linearRGB;solid-color:#000000;solid-opacity:1;vector-effect:none;fill:#bbbbbb;fill-opacity:1;fill-rule:nonzero;stroke:none;stroke-width:1.48283;stroke-linecap:square;stroke-linejoin:miter;stroke-miterlimit:4;stroke-dasharray:none;stroke-dashoffset:0;stroke-opacity:1;color-rendering:auto;image-rendering:auto;shape-rendering:auto;text-rendering:auto;enable-background:accumulate;stop-color:#000000"
       d="m 270.80266,55.867006 c -21.3822,12.345001 -30.75447,37.831605 -23.8532,60.547664 1.13007,3.7198 2.69683,7.36532 4.71839,10.86672 2.02154,3.50129 4.39527,6.68091 7.05147,9.51959 16.22238,17.33413 42.98016,21.96057 64.36221,9.61562 13.55342,-7.82511 22.27858,-20.93083 25.09552,-35.2636 l -24.22479,-1.3e-4 c -2.24339,6.03938 -6.5528,11.36264 -12.64073,14.87751 -10.2212,5.90119 -22.35035,4.91365 -31.22958,-1.56307 l 66.85309,-38.597674 c -1.12993,-3.719872 -2.69685,-7.365292 -4.71839,-10.866698 -2.0214,-3.501392 -4.39513,-6.680993 -7.05149,-9.519617 -16.22222,-17.334607 -42.98015,-21.961431 -64.3625,-9.616315 z m 11.77001,20.3862 c 10.22149,-5.901333 22.35124,-4.913763 31.23076,1.563324 L 268.3112,104.0814 c -1.16966,-10.928398 4.04014,-21.926862 14.26147,-27.828194 z" />
    <path
       id="path1513"
       style="fill:#bbbbbb;fill-opacity:1;stroke:none;stroke-width:23.54;stroke-linecap:square;stroke-miterlimit:4;stroke-dasharray:none;stroke-opacity:1"
       d="m 401.06196,41.365634 -20.1719,48.230859 -20.17177,48.230857 21.71718,9.08292 20.17176,-48.230872 c 6.17824,-14.770843 22.83049,-21.602165 37.60161,-15.424359 14.77127,6.177853 21.60181,22.830501 15.42446,37.601701 l -20.1719,48.23086 21.71717,9.08291 20.1719,-48.23086 c 11.08614,-26.508 -1.55074,-57.315137 -28.05881,-68.4018 -9.7713,-4.086733 -20.1261,-4.946143 -29.86285,-3.079003 l 3.35032,-8.010312 z" />
    <path
       id="path1515-6"
       style="fill:#bbbbbb;fill-opacity:1;stroke:none;stroke-width:26.0318;stroke-linecap:square;stroke-miterlimit:4;stroke-dasharray:none;stroke-opacity:1"
       d="M 7.706166,41.61441 39.934415,123.07309 61.286574,177.04208 85.49262,167.4655 73.717037,137.70255 115.25501,155.68994 149.16106,142.2754 73.839335,109.65912 103.3057,41.61441 H 89.296283 75.286854 l -2.789319,6.440961 0.157732,0.142929 -0.358313,0.141763 -17.732508,40.949939 -18.86229,-47.675475 z" />
  </g>
</svg>
