<?xml version="1.0" encoding="UTF-8" standalone="no"?>
<svg
   xmlns:dc="http://purl.org/dc/elements/1.1/"
   xmlns:cc="http://creativecommons.org/ns#"
   xmlns:rdf="http://www.w3.org/1999/02/22-rdf-syntax-ns#"
   xmlns:svg="http://www.w3.org/2000/svg"
   xmlns="http://www.w3.org/2000/svg"
   xmlns:sodipodi="http://sodipodi.sourceforge.net/DTD/sodipodi-0.dtd"
   xmlns:inkscape="http://www.inkscape.org/namespaces/inkscape"
   width="12.5mm"
   height="12.5mm"
   viewBox="0 0 12.5 12.5"
   version="1.1"
   id="svg8"
   inkscape:version="1.0.2 (e86c870879, 2021-01-15, custom)"
   sodipodi:docname="information.svg">
  <defs
     id="defs2">
    <rect
       x="55.940475"
       y="99.029762"
       width="5.4806547"
       height="12.284226"
       id="rect835" />
  </defs>
  <sodipodi:namedview
     id="base"
     pagecolor="#ffffff"
     bordercolor="#666666"
     borderopacity="1.0"
     inkscape:pageopacity="0.0"
     inkscape:pageshadow="2"
     inkscape:zoom="7.9195959"
     inkscape:cx="52.74239"
     inkscape:cy="40.746464"
     inkscape:document-units="mm"
     inkscape:current-layer="layer1"
     inkscape:document-rotation="0"
     showgrid="false"
     inkscape:window-width="1624"
     inkscape:window-height="1020"
     inkscape:window-x="114"
     inkscape:window-y="0"
     inkscape:window-maximized="0" />
  <metadata
     id="metadata5">
    <rdf:RDF>
      <cc:Work
         rdf:about="">
        <dc:format>image/svg+xml</dc:format>
        <dc:type
           rdf:resource="http://purl.org/dc/dcmitype/StillImage" />
        <dc:title></dc:title>
      </cc:Work>
    </rdf:RDF>
  </metadata>
  <g
     inkscape:label="Layer 1"
     inkscape:groupmode="layer"
     id="layer1">
    <circle
       style="fill:none;stroke:#c5c5c5;stroke-width:0.755999;stroke-linecap:square;stroke-linejoin:round;stroke-opacity:1"
       id="path842"
       cx="6.2455401"
       cy="6.2793269"
       r="5.5458426" />
    <g
       aria-label="i"
       id="text833"
       style="font-style:normal;font-variant:normal;font-weight:normal;font-stretch:normal;font-size:10.5833px;line-height:1.25;font-family:serif;-inkscape-font-specification:serif;white-space:pre;shape-inside:url(#rect835);fill:#c5c5c5;fill-opacity:1;stroke:none"
       transform="translate(-51.191891,-98.469769)">
      <path
         d="m 57.476191,101.07489 q 0.217041,0 0.366902,0.15503 0.155029,0.14986 0.155029,0.3669 0,0.21704 -0.155029,0.37207 -0.149861,0.15503 -0.366902,0.15503 -0.21704,0 -0.372069,-0.15503 -0.155029,-0.15503 -0.155029,-0.37207 0,-0.21704 0.149862,-0.3669 0.155028,-0.15503 0.377236,-0.15503 z m 0.428913,2.47529 v 3.80338 q 0,0.44441 0.06201,0.59427 0.06718,0.1447 0.191202,0.21704 0.129191,0.0724 0.465087,0.0724 v 0.18603 h -2.299594 v -0.18603 q 0.346231,0 0.465086,-0.0672 0.118855,-0.0672 0.186035,-0.22221 0.07235,-0.15503 0.07235,-0.59427 v -1.82418 q 0,-0.76997 -0.04651,-0.99735 -0.03617,-0.16536 -0.113688,-0.22737 -0.07751,-0.0672 -0.211873,-0.0672 -0.144693,0 -0.351398,0.0775 l -0.07235,-0.18603 1.426265,-0.57878 z"
         style="font-style:normal;font-variant:normal;font-weight:normal;font-stretch:normal;font-family:serif;-inkscape-font-specification:serif;fill:#c5c5c5;fill-opacity:1"
         id="path839" />
    </g>
  </g>
</svg>
