<?xml version="1.0" encoding="UTF-8" standalone="no"?>
<svg
   xmlns:dc="http://purl.org/dc/elements/1.1/"
   xmlns:cc="http://creativecommons.org/ns#"
   xmlns:rdf="http://www.w3.org/1999/02/22-rdf-syntax-ns#"
   xmlns:svg="http://www.w3.org/2000/svg"
   xmlns="http://www.w3.org/2000/svg"
   xmlns:sodipodi="http://sodipodi.sourceforge.net/DTD/sodipodi-0.dtd"
   xmlns:inkscape="http://www.inkscape.org/namespaces/inkscape"
   width="75mm"
   height="80mm"
   viewBox="0 0 75 80"
   version="1.1"
   id="svg8"
   inkscape:version="1.0.2 (e86c870879, 2021-01-15, custom)"
   sodipodi:docname="tag.svg">
  <defs
     id="defs2" />
  <sodipodi:namedview
     id="base"
     pagecolor="#ffffff"
     bordercolor="#666666"
     borderopacity="1.0"
     inkscape:pageopacity="0.0"
     inkscape:pageshadow="2"
     inkscape:zoom="1.4330992"
     inkscape:cx="-12.622406"
     inkscape:cy="196.53149"
     inkscape:document-units="mm"
     inkscape:current-layer="layer1"
     inkscape:document-rotation="0"
     showgrid="true"
     inkscape:snap-bbox="true"
     inkscape:snap-center="true"
     inkscape:snap-object-midpoints="true"
     inkscape:snap-grids="false"
     inkscape:snap-bbox-edge-midpoints="true"
     inkscape:window-width="1920"
     inkscape:window-height="986"
     inkscape:window-x="-11"
     inkscape:window-y="-11"
     inkscape:window-maximized="1">
    <inkscape:grid
       type="xygrid"
       id="grid10" />
  </sodipodi:namedview>
  <metadata
     id="metadata5">
    <rdf:RDF>
      <cc:Work
         rdf:about="">
        <dc:format>image/svg+xml</dc:format>
        <dc:type
           rdf:resource="http://purl.org/dc/dcmitype/StillImage" />
        <dc:title></dc:title>
      </cc:Work>
    </rdf:RDF>
  </metadata>
  <g
     inkscape:label="Layer 1"
     inkscape:groupmode="layer"
     id="layer1">
    <path
       id="path849-4"
       style="fill:#acb6df;fill-opacity:1;fill-rule:evenodd;stroke:#acb6df;stroke-width:2.64583;stroke-linecap:round;stroke-linejoin:round;stroke-miterlimit:4;stroke-dasharray:none;stroke-opacity:1"
       d="M 64.291943,10.064099 40.442747,10.031322 13.23538,50.721095 46.227087,72.781122 73.434454,32.091349 Z m -4.774216,7.140042 a 8.6085462,8.6085462 0 0 1 2.371236,11.941496 8.6085462,8.6085462 0 0 1 -11.941496,2.371235 8.6085462,8.6085462 0 0 1 -2.371235,-11.941496 8.6085462,8.6085462 0 0 1 11.941495,-2.371235 z" />
    <path
       id="path849"
       style="fill:#0f52ba;fill-opacity:1;fill-rule:evenodd;stroke:#0f52ba;stroke-width:2.64583;stroke-linecap:round;stroke-linejoin:round;stroke-miterlimit:4;stroke-dasharray:none;stroke-opacity:1"
       d="M 55.363136,4.0314627 31.513939,3.9986853 4.3065729,44.688459 37.298281,66.748487 64.505648,26.058713 Z M 50.58892,11.171504 c 3.952467,2.642678 5.014126,7.989171 2.371236,11.941496 -2.642678,3.952466 -7.989171,5.014125 -11.941496,2.371235 -3.952465,-2.642678 -5.014123,-7.989171 -2.371234,-11.941495 2.642678,-3.9524654 7.98917,-5.0141243 11.941494,-2.371236 z"
       sodipodi:nodetypes="ccccccccccc" />
  </g>
</svg>
